<mxfile host="65bd71144e">
    <diagram id="E7CfuM9nxl2IeebqtHH5" name="Página-1">
        <mxGraphModel dx="283" dy="371" grid="1" gridSize="10" guides="1" tooltips="1" connect="1" arrows="1" fold="1" page="0" pageScale="1" pageWidth="827" pageHeight="1169" math="0" shadow="0" adaptiveColors="auto">
            <root>
                <mxCell id="0"/>
                <mxCell id="1" parent="0"/>
                <mxCell id="2" value="Início" style="ellipse;whiteSpace=wrap;html=1;aspect=fixed;strokeColor=#000000;fillColor=#CCFF99;" vertex="1" parent="1">
                    <mxGeometry x="280" y="80" width="120" height="120" as="geometry"/>
                </mxCell>
                <mxCell id="15" style="edgeStyle=none;html=1;exitX=0.5;exitY=1;exitDx=0;exitDy=0;entryX=0.5;entryY=0;entryDx=0;entryDy=0;" edge="1" parent="1" source="4" target="14">
                    <mxGeometry relative="1" as="geometry"/>
                </mxCell>
                <mxCell id="4" value="&lt;div&gt;&lt;span style=&quot;scrollbar-color: light-dark(#e2e2e2, #4b4b4b)&lt;br/&gt;&#x9;&#x9;&#x9;&#x9;&#x9;light-dark(#fbfbfb, var(--dark-panel-color)); background-color: rgb(251, 251, 251); color: rgb(0, 0, 0);&quot;&gt;&lt;br&gt;&lt;/span&gt;&lt;/div&gt;&lt;span style=&quot;scrollbar-color: light-dark(#e2e2e2, #4b4b4b)&lt;br/&gt;&#x9;&#x9;&#x9;&#x9;&#x9;light-dark(#fbfbfb, var(--dark-panel-color)); background-color: rgb(251, 251, 251); color: rgb(0, 0, 0);&quot;&gt;nota1 = X&lt;/span&gt;&lt;br style=&quot;scrollbar-color: light-dark(#e2e2e2, #4b4b4b)&lt;br/&gt;&#x9;&#x9;&#x9;&#x9;&#x9;light-dark(#fbfbfb, var(--dark-panel-color)); background-color: rgb(251, 251, 251);&quot;&gt;&lt;span style=&quot;scrollbar-color: light-dark(#e2e2e2, #4b4b4b)&lt;br/&gt;&#x9;&#x9;&#x9;&#x9;&#x9;light-dark(#fbfbfb, var(--dark-panel-color)); background-color: rgb(251, 251, 251); color: rgb(0, 0, 0);&quot;&gt;nota2 = X&lt;/span&gt;&lt;br style=&quot;scrollbar-color: light-dark(#e2e2e2, #4b4b4b)&lt;br/&gt;&#x9;&#x9;&#x9;&#x9;&#x9;light-dark(#fbfbfb, var(--dark-panel-color)); background-color: rgb(251, 251, 251);&quot;&gt;&lt;span style=&quot;scrollbar-color: light-dark(#e2e2e2, #4b4b4b)&lt;br/&gt;&#x9;&#x9;&#x9;&#x9;&#x9;light-dark(#fbfbfb, var(--dark-panel-color)); background-color: rgb(251, 251, 251); color: rgb(0, 0, 0);&quot;&gt;nota3 = X&lt;/span&gt;&lt;br style=&quot;scrollbar-color: light-dark(#e2e2e2, #4b4b4b)&lt;br/&gt;&#x9;&#x9;&#x9;&#x9;&#x9;light-dark(#fbfbfb, var(--dark-panel-color)); background-color: rgb(251, 251, 251);&quot;&gt;&lt;span style=&quot;scrollbar-color: light-dark(#e2e2e2, #4b4b4b)&lt;br/&gt;&#x9;&#x9;&#x9;&#x9;&#x9;light-dark(#fbfbfb, var(--dark-panel-color)); background-color: rgb(251, 251, 251); color: rgb(0, 0, 0);&quot;&gt;nota4 = X&lt;/span&gt;" style="shape=manualInput;whiteSpace=wrap;html=1;strokeColor=#000000;" vertex="1" parent="1">
                    <mxGeometry x="280" y="240" width="120" height="120" as="geometry"/>
                </mxCell>
                <mxCell id="18" style="edgeStyle=none;html=1;" edge="1" parent="1" source="14" target="17">
                    <mxGeometry relative="1" as="geometry"/>
                </mxCell>
                <mxCell id="14" value="&lt;span style=&quot;color: rgb(0, 0, 0); background-color: rgb(251, 251, 251);&quot;&gt;soma = nota1 + nota2 + nota3 + nota4&lt;/span&gt;" style="rounded=0;whiteSpace=wrap;html=1;" vertex="1" parent="1">
                    <mxGeometry x="280" y="400" width="120" height="120" as="geometry"/>
                </mxCell>
                <mxCell id="24" style="edgeStyle=none;html=1;entryX=0.5;entryY=0;entryDx=0;entryDy=0;" edge="1" parent="1" source="17" target="23">
                    <mxGeometry relative="1" as="geometry"/>
                </mxCell>
                <mxCell id="17" value="&lt;span style=&quot;color: rgb(0, 0, 0); background-color: rgb(251, 251, 251);&quot;&gt;media = soma / 4&lt;/span&gt;" style="rounded=0;whiteSpace=wrap;html=1;" vertex="1" parent="1">
                    <mxGeometry x="280" y="560" width="120" height="120" as="geometry"/>
                </mxCell>
                <mxCell id="22" style="edgeStyle=none;html=1;entryX=0.503;entryY=0.138;entryDx=0;entryDy=0;entryPerimeter=0;" edge="1" parent="1" source="2" target="4">
                    <mxGeometry relative="1" as="geometry"/>
                </mxCell>
                <mxCell id="23" value="&lt;span style=&quot;color: rgb(0, 0, 0); background-color: rgb(251, 251, 251);&quot;&gt;media &amp;gt;= 7&lt;/span&gt;" style="rhombus;whiteSpace=wrap;html=1;" vertex="1" parent="1">
                    <mxGeometry x="280" y="720" width="120" height="120" as="geometry"/>
                </mxCell>
                <mxCell id="29" style="edgeStyle=none;html=1;entryX=0.5;entryY=0;entryDx=0;entryDy=0;" edge="1" parent="1" source="25" target="28">
                    <mxGeometry relative="1" as="geometry"/>
                </mxCell>
                <mxCell id="25" value="Aprovado" style="shape=display;whiteSpace=wrap;html=1;" vertex="1" parent="1">
                    <mxGeometry x="280" y="900" width="120" height="60" as="geometry"/>
                </mxCell>
                <mxCell id="26" style="edgeStyle=none;html=1;entryX=0;entryY=0;entryDx=60;entryDy=0;entryPerimeter=0;" edge="1" parent="1" source="23" target="25">
                    <mxGeometry relative="1" as="geometry"/>
                </mxCell>
                <mxCell id="27" value="SIM" style="edgeLabel;html=1;align=center;verticalAlign=middle;resizable=0;points=[];fillColor=#FFFFFF;" vertex="1" connectable="0" parent="26">
                    <mxGeometry x="0.0195" y="-1" relative="1" as="geometry">
                        <mxPoint as="offset"/>
                    </mxGeometry>
                </mxCell>
                <mxCell id="28" value="Fim" style="ellipse;whiteSpace=wrap;html=1;aspect=fixed;strokeColor=#000000;fillColor=#CCFF99;" vertex="1" parent="1">
                    <mxGeometry x="280" y="1000" width="120" height="120" as="geometry"/>
                </mxCell>
                <mxCell id="39" style="edgeStyle=none;html=1;" edge="1" parent="1" source="30" target="38">
                    <mxGeometry relative="1" as="geometry"/>
                </mxCell>
                <mxCell id="40" value="SIM" style="edgeLabel;html=1;align=center;verticalAlign=middle;resizable=0;points=[];" vertex="1" connectable="0" parent="39">
                    <mxGeometry x="-0.2317" y="2" relative="1" as="geometry">
                        <mxPoint as="offset"/>
                    </mxGeometry>
                </mxCell>
                <mxCell id="30" value="&lt;span style=&quot;color: rgb(0, 0, 0); background-color: rgb(251, 251, 251);&quot;&gt;media &amp;gt;= 5&lt;/span&gt;" style="rhombus;whiteSpace=wrap;html=1;" vertex="1" parent="1">
                    <mxGeometry x="440" y="790" width="120" height="120" as="geometry"/>
                </mxCell>
                <mxCell id="36" value="" style="endArrow=classic;html=1;entryX=0;entryY=0.5;entryDx=0;entryDy=0;" edge="1" parent="1" target="30">
                    <mxGeometry width="50" height="50" relative="1" as="geometry">
                        <mxPoint x="340" y="850" as="sourcePoint"/>
                        <mxPoint x="490" y="970" as="targetPoint"/>
                    </mxGeometry>
                </mxCell>
                <mxCell id="37" value="NÃO" style="edgeLabel;html=1;align=center;verticalAlign=middle;resizable=0;points=[];" vertex="1" connectable="0" parent="36">
                    <mxGeometry x="-0.0276" y="-1" relative="1" as="geometry">
                        <mxPoint as="offset"/>
                    </mxGeometry>
                </mxCell>
                <mxCell id="38" value="Recuperação" style="shape=display;whiteSpace=wrap;html=1;" vertex="1" parent="1">
                    <mxGeometry x="440" y="960" width="120" height="60" as="geometry"/>
                </mxCell>
                <mxCell id="41" value="Reprovado" style="shape=display;whiteSpace=wrap;html=1;" vertex="1" parent="1">
                    <mxGeometry x="630" y="960" width="120" height="60" as="geometry"/>
                </mxCell>
                <mxCell id="42" value="" style="edgeStyle=segmentEdgeStyle;endArrow=classic;html=1;curved=0;rounded=0;endSize=8;startSize=8;entryX=0;entryY=0;entryDx=60;entryDy=0;entryPerimeter=0;" edge="1" parent="1" source="30" target="41">
                    <mxGeometry width="50" height="50" relative="1" as="geometry">
                        <mxPoint x="580" y="850" as="sourcePoint"/>
                        <mxPoint x="630" y="800" as="targetPoint"/>
                    </mxGeometry>
                </mxCell>
                <mxCell id="43" value="NÃO" style="edgeLabel;html=1;align=center;verticalAlign=middle;resizable=0;points=[];" vertex="1" connectable="0" parent="42">
                    <mxGeometry x="-0.5658" y="-1" relative="1" as="geometry">
                        <mxPoint as="offset"/>
                    </mxGeometry>
                </mxCell>
                <mxCell id="44" style="edgeStyle=none;html=1;entryX=1;entryY=0.5;entryDx=0;entryDy=0;entryPerimeter=0;" edge="1" parent="1" source="41" target="38">
                    <mxGeometry relative="1" as="geometry">
                        <Array as="points">
                            <mxPoint x="600" y="990"/>
                        </Array>
                    </mxGeometry>
                </mxCell>
                <mxCell id="49" value="" style="edgeStyle=segmentEdgeStyle;endArrow=classic;html=1;curved=0;rounded=0;endSize=8;startSize=8;entryX=1.015;entryY=0.464;entryDx=0;entryDy=0;entryPerimeter=0;" edge="1" parent="1" source="41" target="28">
                    <mxGeometry width="50" height="50" relative="1" as="geometry">
                        <mxPoint x="600" y="1010" as="sourcePoint"/>
                        <mxPoint x="470" y="1055" as="targetPoint"/>
                        <Array as="points">
                            <mxPoint x="590" y="990"/>
                            <mxPoint x="590" y="1056"/>
                        </Array>
                    </mxGeometry>
                </mxCell>
            </root>
        </mxGraphModel>
    </diagram>
</mxfile>